Coordinates
version=1
nRows=29
nColumns=22
inDegrees=yes

Units are S.I. units (second, meters, Newtons, ...)
If the header above contains a line with 'inDegrees', this indicates whether rotational values are in degrees (yes) or radians (no).

endheader
time	pelvis_tilt	pelvis_list	pelvis_rotation	pelvis_tx	pelvis_ty	pelvis_tz	hip_flexion_r	hip_adduction_r	hip_rotation_r	knee_angle_r	ankle_angle_r	subtalar_angle_r	hip_flexion_l	hip_adduction_l	hip_rotation_l	knee_angle_l	ankle_angle_l	subtalar_angle_l	lumbar_extension	lumbar_bending	lumbar_rotation
      0.01000000	      1.56437324	      2.70423406	    178.98140596	      0.24840335	      1.01856207	      1.01556114	      2.06564617	      4.03449082	     -6.26244691	    -13.43787595	     10.70816041	     -2.75239050	      3.48108162	     -6.82441158	     -9.57566561	    -16.84606858	     12.78106774	      4.49666880	     -3.69362030	      2.45494286	     -0.57200575
      0.02000000	      1.54248227	      2.68602489	    179.00062653	      0.24823138	      1.01864143	      1.01624667	      2.05337075	      3.97562925	     -6.23374289	    -13.47767147	     10.72182294	     -2.79632486	      3.29169435	     -6.74255718	     -9.61830234	    -16.54932469	     12.77071293	      4.52424187	     -3.67130852	      2.41002515	     -0.60619907
      0.03000000	      1.50146657	      2.65345292	    179.03598393	      0.24807121	      1.01876255	      1.01708885	      2.01925441	      3.88979589	     -6.23905475	    -13.51258432	     10.73340945	     -2.77042870	      3.05580474	     -6.62862328	     -9.64560554	    -16.19350122	     12.72841650	      4.47806097	     -3.67101243	      2.34548887	     -0.65693698
      0.04000000	      1.47521682	      2.62437726	    179.07528236	      0.24794013	      1.01886624	      1.01800733	      2.00048711	      3.80350513	     -6.24873639	    -13.54405838	     10.73984115	     -2.72085827	      2.82157457	     -6.51053440	     -9.66646708	    -15.80673500	     12.68095463	      4.40298526	     -3.65358450	      2.27848000	     -0.70454727
      0.05000000	      1.46690322	      2.60138856	    179.11757100	      0.24786122	      1.01894611	      1.01897101	      1.99903093	      3.72056851	     -6.26948574	    -13.56640295	     10.74291170	     -2.66375745	      2.60315991	     -6.39589053	     -9.69042893	    -15.40566309	     12.62726246	      4.31529779	     -3.61964122	      2.21424660	     -0.75100918
      0.06000000	      1.47678415	      2.58119059	    179.15904190	      0.24782956	      1.01900299	      1.01994701	      2.01530484	      3.63902778	     -6.29765059	    -13.58092159	     10.73751222	     -2.60301658	      2.40201508	     -6.28309020	     -9.71721770	    -14.99493297	     12.56594059	      4.22349016	     -3.56796079	      2.14865030	     -0.79057280
      0.07000000	      1.49954059	      2.56130792	    179.19527753	      0.24783759	      1.01904906	      1.02091817	      2.03941675	      3.55655084	     -6.33758036	    -13.57952060	     10.73131999	     -2.53522109	      2.21143571	     -6.17042939	     -9.75602405	    -14.57459803	     12.49361484	      4.12399090	     -3.50657159	      2.08041119	     -0.81801158
      0.08000000	      1.53048943	      2.53765113	    179.22058688	      0.24787754	      1.01909326	      1.02186474	      2.06632496	      3.46939990	     -6.38620866	    -13.56169035	     10.71914317	     -2.45855664	      2.02226617	     -6.05348743	     -9.80576582	    -14.13933452	     12.40670005	      4.02155309	     -3.44084824	      2.00298949	     -0.82908728
      0.09000000	      1.56530670	      2.51195918	    179.23778288	      0.24792020	      1.01914640	      1.02280853	      2.08849623	      3.37845743	     -6.44117313	    -13.52785160	     10.69741503	     -2.37766549	      1.82955300	     -5.93244796	     -9.86692212	    -13.69079511	     12.30990482	      3.92831092	     -3.37145120	      1.92365048	     -0.82428709
      0.10000000	      1.57765537	      2.47863083	    179.25269762	      0.24793558	      1.01923853	      1.02375020	      2.06853070	      3.27832593	     -6.50959386	    -13.46214030	     10.70277130	     -2.26661284	      1.60208125	     -5.80125969	     -9.94132335	    -13.22589978	     12.19644703	      3.80199272	     -3.32754288	      1.83232673	     -0.80600378
      0.11000000	      1.59277263	      2.44397063	    179.26921334	      0.24793270	      1.01933628	      1.02471228	      2.04534457	      3.17588163	     -6.56788569	    -13.38835416	     10.67815982	     -2.16316701	      1.37064443	     -5.66528990	    -10.00750821	    -12.74842519	     12.07182327	      3.70865571	     -3.27837338	      1.74186517	     -0.78360767
      0.12000000	      1.61207187	      2.40904509	    179.28918559	      0.24791383	      1.01942937	      1.02568651	      2.02402141	      3.07350249	     -6.60612775	    -13.31384983	     10.62987094	     -2.07276443	      1.13884684	     -5.52697887	    -10.06058670	    -12.26219086	     11.93929769	      3.64349788	     -3.22499326	      1.65206863	     -0.77395136
      0.13000000	      1.57765457	      2.37101122	    179.32404344	      0.24780491	      1.01958441	      1.02669613	      1.91726564	      2.96668194	     -6.66499551	    -13.19895026	     10.64720546	     -1.93769304	      0.84331528	     -5.38310227	    -10.12654228	    -11.76888591	     11.81083575	      3.51658703	     -3.22511989	      1.55686899	     -0.76065092
      0.14000000	      1.56775548	      2.33701331	    179.36422640	      0.24768849	      1.01969657	      1.02772538	      1.84095136	      2.86469166	     -6.70222051	    -13.09534992	     10.63318653	     -1.82304797	      0.57884068	     -5.24267810	    -10.17024251	    -11.28384868	     11.67809023	      3.41988391	     -3.19662095	      1.46883315	     -0.75815384
      0.15000000	      1.55707299	      2.30682600	    179.41184443	      0.24756157	      1.01979486	      1.02878118	      1.76348329	      2.76580938	     -6.73681500	    -12.99477041	     10.62438445	     -1.70857995	      0.32366040	     -5.10606745	    -10.20358830	    -10.81681546	     11.55250526	      3.31729902	     -3.16899700	      1.38759849	     -0.76460114
      0.16000000	      1.57190416	      2.28942107	    179.46054570	      0.24747465	      1.01984009	      1.02984184	      1.72651478	      2.68061143	     -6.75921726	    -12.91581441	     10.59572643	     -1.61314245	      0.11427344	     -4.98513812	    -10.21140440	    -10.38102847	     11.44824593	      3.23399119	     -3.12075058	      1.32114873	     -0.77755196
      0.17000000	      1.55428562	      2.27527818	    179.52274037	      0.24735601	      1.01990414	      1.03094988	      1.64248494	      2.59453266	     -6.82636393	    -12.81738760	     10.62005494	     -1.46570313	     -0.10669051	     -4.86913994	    -10.22656990	     -9.98912867	     11.36153853	      3.06696428	     -3.10963413	      1.25878601	     -0.78543473
      0.18000000	      1.58040647	      2.27110866	    179.58517927	      0.24730207	      1.01989903	      1.03207695	      1.62753129	      2.51860783	     -6.86353594	    -12.75683112	     10.60389158	     -1.36483647	     -0.24523119	     -4.76743703	    -10.21173763	     -9.65862180	     11.29121465	      2.96016461	     -3.05652810	      1.21317641	     -0.80912010
      0.19000000	      1.59788123	      2.27200723	    179.65333080	      0.24727318	      1.01988919	      1.03322428	      1.60597485	      2.44590650	     -6.92577780	    -12.69746765	     10.60804371	     -1.23818940	     -0.35770282	     -4.67519730	    -10.18368182	     -9.39142579	     11.24797558	      2.80767148	     -3.02424097	      1.17108122	     -0.83152555
      0.20000000	      1.62216156	      2.28265404	    179.72318650	      0.24728525	      1.01986142	      1.03438266	      1.59833682	      2.38288574	     -6.99137605	    -12.64522063	     10.61230440	     -1.10407820	     -0.41858428	     -4.60001662	    -10.14618154	     -9.20379039	     11.23292298	      2.63611890	     -2.99544515	      1.13980135	     -0.85696998
      0.21000000	      1.65173021	      2.29550321	    179.78827918	      0.24731488	      1.01982240	      1.03554456	      1.60229209	      2.32283859	     -7.04759122	    -12.60083678	     10.59255989	     -1.00490215	     -0.43159491	     -4.53312843	    -10.09372219	     -9.09826403	     11.26723786	      2.50354283	     -2.96556916	      1.10861516	     -0.85841487
      0.22000000	      1.68260778	      2.31816218	    179.86872439	      0.24735733	      1.01977864	      1.03674801	      1.61010837	      2.27051768	     -7.13207337	    -12.56130373	     10.61787018	     -0.85186794	     -0.40109146	     -4.48195209	    -10.02770673	     -9.06345032	     11.26928161	      2.27667786	     -2.94151956	      1.09280696	     -0.89264842
      0.23000000	      1.70525481	      2.33028088	    179.92517303	      0.24740760	      1.01975426	      1.03791656	      1.61079445	      2.21215487	     -7.15684356	    -12.51989886	     10.58410070	     -0.78642467	     -0.35295741	     -4.42454993	     -9.98276474	     -9.08519157	     11.33915144	      2.17205981	     -2.93355753	      1.06175748	     -0.91128714
      0.24000000	      1.74825228	      2.36071435	    180.00974806	      0.24745973	      1.01970058	      1.03914493	      1.63679026	      2.16911266	     -7.25434550	    -12.48692564	     10.59018823	     -0.65394931	     -0.24477579	     -4.38880000	     -9.87194378	     -9.16994312	     11.37880795	      1.94065243	     -2.90461965	      1.05094971	     -0.93336524
      0.25000000	      1.77968203	      2.38325157	    180.07049682	      0.24750414	      1.01967399	      1.04034731	      1.64620575	      2.12154937	     -7.30225818	    -12.44256720	     10.56882107	     -0.56402740	     -0.13470268	     -4.34707572	     -9.79124370	     -9.28949347	     11.43963906	      1.76725560	     -2.89444431	      1.02952656	     -0.93756582
      0.26000000	      1.80730717	      2.41075908	    180.13120327	      0.24753415	      1.01965976	      1.04156393	      1.64833645	      2.07987721	     -7.35177956	    -12.39317646	     10.54144013	     -0.49027381	     -0.01629621	     -4.31156228	     -9.70319340	     -9.43346827	     11.50133514	      1.61509054	     -2.89092340	      1.01319699	     -0.94074607
      0.27000000	      1.81442643	      2.42921306	    180.17296824	      0.24755178	      1.01968517	      1.04276398	      1.62658453	      2.03144800	     -7.35680419	    -12.34024814	     10.50171312	     -0.45092050	      0.08013774	     -4.26714068	     -9.64079140	     -9.58512177	     11.55465329	      1.53505732	     -2.91693480	      0.98533621	     -0.93392482
      0.28000000	      1.83191614	      2.46075556	    180.22452287	      0.24754812	      1.01969312	      1.04400114	      1.61409687	      1.99435685	     -7.39677829	    -12.28645544	     10.45826209	     -0.39378789	      0.18809026	     -4.23539289	     -9.56435621	     -9.73744620	     11.62347807	      1.41894757	     -2.93109487	      0.97069508	     -0.92159175
      0.29000000	      1.85185609	      2.49499852	    180.25897226	      0.24751964	      1.01969961	      1.04523014	      1.60640027	      1.95993382	     -7.42932653	    -12.23655538	     10.42115849	     -0.32999582	      0.28093778	     -4.20431319	     -9.49753102	     -9.86563061	     11.67368410	      1.29681659	     -2.94375656	      0.95821179	     -0.89029539
